<svg viewBox="0 0 81 18" fill="none" xmlns="http://www.w3.org/2000/svg">
  <rect width="81" height="18" rx="5" fill="white"/>
  <path d="M0 5C0 2.23858 2.23858 0 5 0H39V18H5C2.23858 18 0 15.7614 0 13V5Z" fill="#F8E71C"/>
  <path d="M12.264 11.032V10.12H11.22V4.816H10.284L6.468 10.18V11.032H10.236V13H11.22V11.032H12.264ZM9.648 7.108C9.996 6.616 10.068 6.508 10.212 6.244H10.248C10.236 6.58 10.236 6.676 10.236 7.156V10.12H7.524L9.648 7.108ZM15.1383 5.728H18.3303V4.816H14.2503L13.8543 9.004C14.4663 8.824 15.2943 8.68 15.8343 8.68C17.1543 8.68 17.8623 9.34 17.8623 10.552C17.8623 11.644 17.0703 12.364 16.1223 12.364C15.0423 12.364 14.5143 11.716 14.3943 11.008H13.3383C13.4583 12.22 14.4303 13.264 16.0863 13.264C17.9703 13.264 18.8943 11.728 18.8943 10.408C18.8943 8.74 17.7063 7.768 15.9903 7.768C15.6543 7.768 15.2583 7.804 14.9103 7.9L15.1383 5.728ZM20.0526 6.772C20.0526 8.5 21.0006 9.016 21.8166 9.016C22.4886 9.016 23.5446 8.584 23.5446 6.748C23.5446 5.08 22.6446 4.564 21.8526 4.564C20.9886 4.564 20.0526 5.164 20.0526 6.772ZM22.7046 6.772C22.7046 7.84 22.2846 8.236 21.8166 8.236C21.2646 8.236 20.8926 7.816 20.8926 6.76C20.8926 5.728 21.3126 5.344 21.8046 5.344C22.3806 5.344 22.7046 5.812 22.7046 6.772ZM24.4446 11.02C24.4446 12.76 25.3806 13.264 26.1966 13.264C26.8806 13.264 27.9366 12.844 27.9366 10.996C27.9366 9.34 27.0366 8.824 26.2326 8.824C25.3686 8.824 24.4446 9.424 24.4446 11.02ZM27.0966 11.02C27.0966 12.112 26.6646 12.484 26.1966 12.484C25.6446 12.484 25.2846 12.076 25.2846 11.008C25.2846 9.976 25.7046 9.604 26.1846 9.604C26.7726 9.604 27.0966 10.06 27.0966 11.02ZM26.2686 4.816L20.8326 13H21.7566L27.1926 4.816H26.2686ZM32.3397 13H34.7637C36.0957 13 36.8637 12.304 36.8637 11.284C36.8637 10.66 36.4917 10.06 35.4957 9.868C36.1557 9.664 36.4077 9.172 36.4077 8.704C36.4077 7.756 35.6757 7.252 34.5117 7.252H32.3397V13ZM34.6797 10.396C35.5437 10.396 35.9157 10.72 35.9157 11.296C35.9157 11.764 35.5797 12.208 34.8237 12.208H33.2517V10.396H34.6797ZM34.4517 8.044C35.0757 8.044 35.4717 8.284 35.4717 8.8C35.4717 9.316 35.0877 9.604 34.3197 9.604H33.2517V8.044H34.4517ZM42.6871 13H43.6831V5.728H45.8311V4.816H40.5391V5.728H42.6871V13ZM47.1208 8.908C47.1208 6.904 48.5608 5.44 50.4208 5.44C52.3888 5.44 53.7328 6.952 53.7328 8.908C53.7328 10.9 52.2928 12.376 50.4208 12.376C48.5608 12.376 47.1208 10.9 47.1208 8.908ZM46.0888 8.908C46.0888 10.936 47.4448 13.264 50.4328 13.264C52.9048 13.264 54.7648 11.308 54.7648 8.908C54.7648 6.616 53.1208 4.552 50.4328 4.552C47.9128 4.552 46.0888 6.568 46.0888 8.908ZM61.0148 13H62.0108V4.816H56.1068V13H57.1028V5.728H61.0148V13ZM67.6945 10.312V9.352H63.8305V10.312H67.6945ZM70.691 6.604C70.751 6.04 71.135 5.44 72.083 5.44C73.007 5.44 73.391 6.088 73.391 6.688C73.391 7.612 72.707 8.14 71.759 8.14H71.363V9.052H71.819C73.187 9.064 73.703 9.88 73.703 10.744C73.703 11.632 73.067 12.364 72.143 12.364C71.195 12.364 70.631 11.788 70.499 11.008H69.443C69.563 12.22 70.439 13.252 72.083 13.252C73.847 13.252 74.723 12.052 74.723 10.72C74.723 9.424 73.895 8.668 72.899 8.524V8.5C73.691 8.284 74.423 7.648 74.423 6.64C74.423 5.464 73.511 4.552 72.095 4.552C70.499 4.552 69.767 5.656 69.671 6.604H70.691Z" fill="#11223E"/>
</svg>
